<svg id="Capa_1" enable-background="new 0 0 512 512" height="512" viewBox="0 0 512 512" width="512" xmlns="http://www.w3.org/2000/svg"><g><path d="m502 134.05h-47.479c-5.523 0-10 4.477-10 10s4.477 10 10 10h47.479c5.523 0 10-4.477 10-10s-4.477-10-10-10z"/><path d="m434.884 75.927c2.173 0 4.362-.706 6.199-2.159l39.401-31.181c4.331-3.428 5.063-9.717 1.636-14.047-3.427-4.331-9.717-5.064-14.047-1.636l-39.401 31.181c-4.331 3.427-5.063 9.716-1.636 14.047 1.973 2.494 4.896 3.795 7.848 3.795z"/><path d="m480.483 245.542-39.401-31.182c-4.331-3.428-10.621-2.695-14.047 1.636-3.428 4.331-2.695 10.62 1.636 14.047l39.401 31.182c1.836 1.454 4.025 2.159 6.199 2.159 2.952 0 5.875-1.301 7.848-3.795 3.428-4.33 2.695-10.619-1.636-14.047z"/><path d="m34.519 154.05h47.451c5.523 0 10-4.477 10-10s-4.477-10-10-10h-47.451c-5.523 0-10 4.477-10 10s4.477 10 10 10z"/><path d="m56.036 42.587 39.4 31.181c1.837 1.454 4.025 2.159 6.199 2.159 2.952 0 5.875-1.301 7.848-3.795 3.428-4.331 2.695-10.62-1.636-14.047l-39.4-31.181c-4.332-3.428-10.62-2.695-14.047 1.636-3.427 4.33-2.695 10.62 1.636 14.047z"/><path d="m95.437 214.361-39.4 31.182c-4.331 3.427-5.063 9.716-1.636 14.047 1.974 2.494 4.896 3.795 7.848 3.795 2.173 0 4.362-.706 6.199-2.159l39.4-31.182c4.331-3.427 5.063-9.716 1.636-14.047s-9.716-5.064-14.047-1.636z"/><path d="m158.412 185.878 7.767 7.512c1.941 1.878 4.448 2.812 6.951 2.812 2.615 0 5.227-1.02 7.189-3.048 3.84-3.97 3.734-10.301-.236-14.14l-7.641-7.39c-23.245-24.175-23.205-63.429.117-87.584 18.492-19.16 51.303-18.146 73.141 2.261l.917.858c6.255 5.855 10.387 9.724 16.838 9.724s10.583-3.868 16.838-9.724l.921-.862c21.822-20.417 54.632-21.43 73.137-2.256 20.251 20.978 22.937 54.764 6.967 78.973-9.023.284-18.173 3.611-25.695 9.963-16.124-13.601-39.65-13.339-53.403.942-16.483 17.035-16.483 44.751 0 61.786.08.082.16.162.242.242l2.672 2.578-21.695 20.946-18.736-18.075c-3.976-3.835-10.306-3.722-14.14.254-3.834 3.975-3.721 10.305.254 14.14l25.682 24.775c1.937 1.869 4.44 2.803 6.943 2.803 2.504 0 5.008-.936 6.946-2.806l29.147-28.14 29.16 28.142c1.938 1.87 4.44 2.804 6.944 2.804 2.503 0 5.007-.935 6.944-2.804l46.232-44.618c.084-.082.168-.165.25-.25 16.441-17.03 16.441-44.739 0-61.77-2.252-2.332-4.768-4.283-7.465-5.869 7.255-13.32 10.799-28.588 10.075-44.151-.945-20.323-9.09-39.414-22.934-53.755-13.153-13.629-31.177-20.69-50.782-19.893-18.544.759-36.446 8.371-50.405 21.43l-.93.87c-1.062.994-2.192 2.052-3.17 2.932-.978-.88-2.108-1.938-3.17-2.932l-.93-.87c-13.976-13.061-31.881-20.671-50.416-21.43-19.587-.807-37.618 6.263-50.77 19.891-30.757 31.855-30.755 83.664.003 115.49.08.081.16.161.241.239zm216.375 35.81-39.149 37.782-39.153-37.786c-8.802-9.22-8.766-24.688.124-33.875 7.521-7.811 19.89-5.421 27.058 1.292l.436.405c3.295 3.072 6.408 5.974 11.521 5.974 5.114 0 8.227-2.902 11.522-5.974l.459-.427c7.144-6.692 19.525-9.076 27.071-1.26 8.856 9.172 8.892 24.644.111 33.869z"/><path d="m397.03 323.094-76.857 39.476c-6.575-6.72-15.737-10.902-25.863-10.902h-52.78c-2.787 0-3.529-.205-3.582-.215-.427-.24-1.736-1.475-2.787-2.466l-.494-.466c-42.779-40.288-78.953-37.743-120.128-21.518-6.508 2.581-6.632 2.586-13.105 2.871l-11.936.014c-3.502-10.253-13.224-17.649-24.648-17.649h-38.806c-14.361-.001-26.044 11.682-26.044 26.043v101.85c0 14.361 11.683 26.044 26.044 26.044h38.805c11.428 0 21.153-7.402 24.651-17.66h21.638c1.876 0 1.876 0 4.028.607.825.232 1.833.517 3.139.868l100.431 26.866c4.431 1.198 8.495 2.377 12.426 3.517 12.892 3.739 23.727 6.883 35.024 6.882 12.779 0 26.148-4.024 43.736-15.76.084-.056.167-.114.25-.172l123.828-88.168c16.063-11.474 20.761-32.188 10.912-48.208-9.756-15.77-30.342-20.867-47.882-11.854zm-326.137 117.037c0 3.333-2.711 6.044-6.044 6.044h-38.805c-3.276 0-6.044-2.768-6.044-6.044v-101.85c0-3.276 2.768-6.044 6.044-6.044h38.805c3.333 0 6.044 2.711 6.044 6.044zm351.494-73.258-123.688 88.068c-25.313 16.858-36.058 13.738-61.965 6.224-4.016-1.165-8.169-2.37-12.802-3.623l-100.445-26.87c-1.196-.321-2.128-.584-2.891-.799-3.657-1.032-5.025-1.358-9.457-1.358h-20.246v-78.618h10.21c.148 0 .296-.003.443-.01l.763-.034c7.896-.347 10.344-.589 19.581-4.252 35.946-14.164 63.679-15.845 99.064 17.479l.48.453c5.995 5.655 9.707 8.134 20.094 8.134h52.78c6.001 0 11.239 3.284 14.035 8.139.011.021.018.044.029.065.08.156.174.3.261.45 1.187 2.246 1.866 4.799 1.866 7.51 0 8.929-7.264 16.192-16.191 16.192h-85.52c-5.523 0-10 4.477-10 10s4.477 10 10 10h85.52c19.956 0 36.191-16.236 36.191-36.192 0-2.628-.289-5.189-.825-7.66l76.492-39.288c7.126-3.661 16.88-3.262 21.72 4.563 4.264 6.931 1.893 16.147-5.499 21.427z"/><path d="m200.911 208.47c-4.922 2.503-6.883 8.524-4.379 13.447l.029.057c1.761 3.463 5.255 5.446 8.887 5.446 1.53 0 3.085-.353 4.545-1.095 4.923-2.503 6.869-8.552 4.366-13.475-2.505-4.924-8.525-6.883-13.448-4.38z"/></g></svg>