<?xml version="1.0" encoding="utf-8"?>
<!-- Generator: Adobe Illustrator 24.0.3, SVG Export Plug-In . SVG Version: 6.00 Build 0)  -->
<svg version="1.1" id="Capa_1" xmlns="http://www.w3.org/2000/svg" xmlns:xlink="http://www.w3.org/1999/xlink" x="0px" y="0px"
	 viewBox="0 0 512 512" style="enable-background:new 0 0 512 512;" xml:space="preserve">
<g>
	<path d="M502,134.1h-47.5c-5.5,0-10,4.5-10,10s4.5,10,10,10H502c5.5,0,10-4.5,10-10S507.5,134.1,502,134.1z"/>
	<path d="M434.9,75.9c2.2,0,4.4-0.7,6.2-2.2l39.4-31.2c4.3-3.4,5.1-9.7,1.6-14c-3.4-4.3-9.7-5.1-14-1.6l-39.4,31.2
		c-4.3,3.4-5.1,9.7-1.6,14C429,74.6,431.9,75.9,434.9,75.9z"/>
	<path d="M480.5,245.5l-39.4-31.2c-4.3-3.4-10.6-2.7-14,1.6c-3.4,4.3-2.7,10.6,1.6,14l39.4,31.2c1.8,1.5,4,2.2,6.2,2.2
		c3,0,5.9-1.3,7.8-3.8C485.5,255.3,484.8,249,480.5,245.5L480.5,245.5z"/>
	<path d="M34.5,154.1H82c5.5,0,10-4.5,10-10s-4.5-10-10-10H34.5c-5.5,0-10,4.5-10,10S29,154.1,34.5,154.1z"/>
	<path d="M56,42.6l39.4,31.2c1.8,1.5,4,2.2,6.2,2.2c3,0,5.9-1.3,7.8-3.8c3.4-4.3,2.7-10.6-1.6-14L68.4,26.9
		c-4.3-3.4-10.6-2.7-14,1.6C51,32.9,51.7,39.2,56,42.6z"/>
	<path d="M95.4,214.4L56,245.5c-4.3,3.4-5.1,9.7-1.6,14c2,2.5,4.9,3.8,7.8,3.8c2.2,0,4.4-0.7,6.2-2.2l39.4-31.2
		c4.3-3.4,5.1-9.7,1.6-14S99.8,210.9,95.4,214.4L95.4,214.4z"/>
	<path d="M158.4,185.9l7.8,7.5c1.9,1.9,4.4,2.8,7,2.8c2.6,0,5.2-1,7.2-3c3.8-4,3.7-10.3-0.2-14.1l-7.6-7.4
		c-23.2-24.2-23.2-63.4,0.1-87.6c18.5-19.2,51.3-18.1,73.1,2.3l0.9,0.9c6.3,5.9,10.4,9.7,16.8,9.7s10.6-3.9,16.8-9.7l0.9-0.9
		c21.8-20.4,54.6-21.4,73.1-2.3c20.3,21,22.9,54.8,7,79c-9,0.3-18.2,3.6-25.7,10c-16.1-13.6-39.6-13.3-53.4,0.9
		c-16.5,17-16.5,44.8,0,61.8c0.1,0.1,0.2,0.2,0.2,0.2l2.7,2.6l-21.7,20.9l-18.7-18.1c-4-3.8-10.3-3.7-14.1,0.3
		c-3.8,4-3.7,10.3,0.3,14.1l25.7,24.8c1.9,1.9,4.4,2.8,6.9,2.8c2.5,0,5-0.9,6.9-2.8l29.1-28.1l29.2,28.1c1.9,1.9,4.4,2.8,6.9,2.8
		c2.5,0,5-0.9,6.9-2.8l46.2-44.6c0.1-0.1,0.2-0.2,0.2-0.2c16.4-17,16.4-44.7,0-61.8c-2.3-2.3-4.8-4.3-7.5-5.9
		c7.3-13.3,10.8-28.6,10.1-44.2c-0.9-20.3-9.1-39.4-22.9-53.8c-13.2-13.6-31.2-20.7-50.8-19.9c-18.5,0.8-36.4,8.4-50.4,21.4
		l-0.9,0.9c-1.1,1-2.2,2.1-3.2,2.9c-1-0.9-2.1-1.9-3.2-2.9l-0.9-0.9c-14-13.1-31.9-20.7-50.4-21.4c-19.6-0.8-37.6,6.3-50.8,19.9
		c-30.8,31.9-30.8,83.7,0,115.5C158.3,185.7,158.3,185.8,158.4,185.9L158.4,185.9z M374.8,221.7l-39.1,37.8l-39.2-37.8
		c-8.8-9.2-8.8-24.7,0.1-33.9c7.5-7.8,19.9-5.4,27.1,1.3l0.4,0.4c3.3,3.1,6.4,6,11.5,6c5.1,0,8.2-2.9,11.5-6l0.5-0.4
		c7.1-6.7,19.5-9.1,27.1-1.3C383.5,197,383.6,212.5,374.8,221.7L374.8,221.7z"/>
	<path d="M397,323.1l-76.9,39.5c-6.6-6.7-15.7-10.9-25.9-10.9h-52.8c-2.8,0-3.5-0.2-3.6-0.2c-0.4-0.2-1.7-1.5-2.8-2.5l-0.5-0.5
		c-42.8-40.3-79-37.7-120.1-21.5c-6.5,2.6-6.6,2.6-13.1,2.9l-11.9,0c-3.5-10.3-13.2-17.6-24.6-17.6H26c-14.4,0-26,11.7-26,26v101.9
		c0,14.4,11.7,26,26,26h38.8c11.4,0,21.2-7.4,24.7-17.7h21.6c1.9,0,1.9,0,4,0.6c0.8,0.2,1.8,0.5,3.1,0.9l100.4,26.9
		c4.4,1.2,8.5,2.4,12.4,3.5c12.9,3.7,23.7,6.9,35,6.9c12.8,0,26.1-4,43.7-15.8c0.1-0.1,0.2-0.1,0.2-0.2L434,383.2
		c16.1-11.5,20.8-32.2,10.9-48.2C435.2,319.2,414.6,314.1,397,323.1L397,323.1z M70.9,440.1c0,3.3-2.7,6-6,6H26c-3.3,0-6-2.8-6-6
		V338.3c0-3.3,2.8-6,6-6h38.8c3.3,0,6,2.7,6,6V440.1z M422.4,366.9l-123.7,88.1c-25.3,16.9-36.1,13.7-62,6.2
		c-4-1.2-8.2-2.4-12.8-3.6l-100.4-26.9c-1.2-0.3-2.1-0.6-2.9-0.8c-3.7-1-5-1.4-9.5-1.4H90.9v-78.6h10.2c0.1,0,0.3,0,0.4,0l0.8,0
		c7.9-0.3,10.3-0.6,19.6-4.3c35.9-14.2,63.7-15.8,99.1,17.5l0.5,0.5c6,5.7,9.7,8.1,20.1,8.1h52.8c6,0,11.2,3.3,14,8.1c0,0,0,0,0,0.1
		c0.1,0.2,0.2,0.3,0.3,0.5c1.2,2.2,1.9,4.8,1.9,7.5c0,8.9-7.3,16.2-16.2,16.2h-85.5c-5.5,0-10,4.5-10,10s4.5,10,10,10h85.5
		c20,0,36.2-16.2,36.2-36.2c0-2.6-0.3-5.2-0.8-7.7l76.5-39.3c7.1-3.7,16.9-3.3,21.7,4.6C432.1,352.4,429.8,361.6,422.4,366.9
		L422.4,366.9z"/>
	<path d="M200.9,208.5c-4.9,2.5-6.9,8.5-4.4,13.4l0,0.1c1.8,3.5,5.3,5.4,8.9,5.4c1.5,0,3.1-0.4,4.5-1.1c4.9-2.5,6.9-8.6,4.4-13.5
		C211.9,207.9,205.8,206,200.9,208.5z"/>
</g>
</svg>
