<?xml version="1.0" encoding="utf-8"?>
<!-- Generator: Adobe Illustrator 24.0.3, SVG Export Plug-In . SVG Version: 6.00 Build 0)  -->
<svg version="1.1" id="Layer_1" xmlns="http://www.w3.org/2000/svg" xmlns:xlink="http://www.w3.org/1999/xlink" x="0px" y="0px"
	 viewBox="0 0 404.3 404.3" style="enable-background:new 0 0 404.3 404.3;" xml:space="preserve">
<g>
	<g>
		<g>
			<path d="M202.2,208.2c18.4,0,36.4-11.2,50.6-31.4c12.6-17.9,20.1-40,20.1-59.2c0-39-31.7-70.7-70.7-70.7s-70.7,31.7-70.7,70.7
				c0,19.2,7.5,41.3,20.1,59.2C165.8,197,183.8,208.2,202.2,208.2z M202.2,58.4c32.6,0,59.1,26.5,59.1,59.1c0,16.6-6.9,36.8-18,52.6
				c-11.8,16.9-26.8,26.5-41.2,26.5s-29.3-9.7-41.2-26.5c-11.1-15.8-18-35.9-18-52.6C143,84.9,169.6,58.4,202.2,58.4z"/>
			<path d="M305.7,239.8c-12.4-19.3-30-34.7-50.7-44.6c-2.2-1-4.8-0.6-6.5,1.1c-13.9,13.8-29.9,21.2-46.3,21.2
				c-16.4,0-32.4-7.3-46.3-21.2c-1.7-1.7-4.3-2.2-6.5-1.1c-20.7,9.9-38.2,25.3-50.7,44.6c-12.8,19.8-19.5,42.9-19.5,66.6v0.1
				c0,1.6,0.7,3.2,1.9,4.3c33.2,30.1,76.3,46.7,121.2,46.7s87.9-16.6,121.2-46.7c1.2-1.1,1.9-2.6,1.9-4.3v-0.1
				C325.3,282.6,318.5,259.6,305.7,239.8z M202.2,345.9c-41.2,0-80.7-14.9-111.5-42c0.4-20.6,6.5-40.6,17.7-57.9
				c10.6-16.4,25.2-29.7,42.4-38.7c15.4,14.2,33.1,21.6,51.4,21.6c18.3,0,36-7.5,51.4-21.6c17.2,9,31.8,22.3,42.4,38.7
				c11.1,17.3,17.2,37.3,17.7,57.9C282.9,331,243.4,345.9,202.2,345.9z"/>
		</g>
	</g>
</g>
</svg>
